<mxfile host="app.diagrams.net" modified="2021-01-19T13:46:10.501Z" agent="5.0 (Windows)" etag="G6KXoJX0wOAzXz-MMYUi" version="14.1.8" type="github">
  <diagram id="RMvE4oY3O5cMn6sWuZmi" name="Page-1">
    <mxGraphModel dx="1185" dy="636" grid="1" gridSize="10" guides="1" tooltips="1" connect="1" arrows="1" fold="1" page="1" pageScale="1" pageWidth="827" pageHeight="1169" math="0" shadow="0">
      <root>
        <mxCell id="0" />
        <mxCell id="1" parent="0" />
        <mxCell id="MLw9d0rKmO0q-Xc1ZFIX-37" value="实时数据采集状态机图" style="shape=umlFrame;whiteSpace=wrap;html=1;width=130;height=30;" vertex="1" parent="1">
          <mxGeometry x="90" y="130" width="580" height="500" as="geometry" />
        </mxCell>
        <mxCell id="MLw9d0rKmO0q-Xc1ZFIX-38" value="" style="ellipse;html=1;shape=startState;fillColor=#000000;strokeColor=#ff0000;" vertex="1" parent="1">
          <mxGeometry x="210" y="240" width="30" height="30" as="geometry" />
        </mxCell>
        <mxCell id="MLw9d0rKmO0q-Xc1ZFIX-39" value="" style="edgeStyle=orthogonalEdgeStyle;html=1;verticalAlign=bottom;endArrow=open;endSize=8;strokeColor=#ff0000;" edge="1" parent="1" source="MLw9d0rKmO0q-Xc1ZFIX-38">
          <mxGeometry relative="1" as="geometry">
            <mxPoint x="300" y="255" as="targetPoint" />
          </mxGeometry>
        </mxCell>
        <mxCell id="MLw9d0rKmO0q-Xc1ZFIX-40" value="" style="edgeStyle=orthogonalEdgeStyle;html=1;verticalAlign=bottom;endArrow=open;endSize=8;strokeColor=#ff0000;" edge="1" parent="1" source="MLw9d0rKmO0q-Xc1ZFIX-46" target="MLw9d0rKmO0q-Xc1ZFIX-43">
          <mxGeometry relative="1" as="geometry">
            <mxPoint x="530" y="155" as="targetPoint" />
            <mxPoint x="500" y="145" as="sourcePoint" />
            <Array as="points">
              <mxPoint x="560" y="185" />
              <mxPoint x="350" y="185" />
            </Array>
          </mxGeometry>
        </mxCell>
        <mxCell id="MLw9d0rKmO0q-Xc1ZFIX-41" value="通过客户端查看采集点数据" style="rounded=1;whiteSpace=wrap;html=1;arcSize=40;fontColor=#000000;fillColor=#ffffc0;strokeColor=#ff0000;" vertex="1" parent="1">
          <mxGeometry x="288" y="345" width="120" height="40" as="geometry" />
        </mxCell>
        <mxCell id="MLw9d0rKmO0q-Xc1ZFIX-42" value="" style="edgeStyle=orthogonalEdgeStyle;html=1;verticalAlign=bottom;endArrow=open;endSize=8;strokeColor=#ff0000;" edge="1" parent="1" source="MLw9d0rKmO0q-Xc1ZFIX-41">
          <mxGeometry relative="1" as="geometry">
            <mxPoint x="348" y="435" as="targetPoint" />
          </mxGeometry>
        </mxCell>
        <mxCell id="MLw9d0rKmO0q-Xc1ZFIX-43" value="发送采集指令" style="rhombus;whiteSpace=wrap;html=1;fillColor=#ffffc0;strokeColor=#ff0000;" vertex="1" parent="1">
          <mxGeometry x="310" y="235" width="80" height="40" as="geometry" />
        </mxCell>
        <mxCell id="MLw9d0rKmO0q-Xc1ZFIX-44" value="发现异常" style="edgeStyle=orthogonalEdgeStyle;html=1;align=left;verticalAlign=bottom;endArrow=open;endSize=8;strokeColor=#ff0000;" edge="1" parent="1" source="MLw9d0rKmO0q-Xc1ZFIX-43">
          <mxGeometry x="-0.6" y="10" relative="1" as="geometry">
            <mxPoint x="490" y="255" as="targetPoint" />
            <mxPoint as="offset" />
          </mxGeometry>
        </mxCell>
        <mxCell id="MLw9d0rKmO0q-Xc1ZFIX-45" value="正确查看" style="edgeStyle=orthogonalEdgeStyle;html=1;align=left;verticalAlign=top;endArrow=open;endSize=8;strokeColor=#ff0000;" edge="1" parent="1" source="MLw9d0rKmO0q-Xc1ZFIX-43">
          <mxGeometry x="-1" relative="1" as="geometry">
            <mxPoint x="350" y="335" as="targetPoint" />
          </mxGeometry>
        </mxCell>
        <mxCell id="MLw9d0rKmO0q-Xc1ZFIX-46" value="汇报异常" style="rounded=1;whiteSpace=wrap;html=1;arcSize=40;fontColor=#000000;fillColor=#ffffc0;strokeColor=#ff0000;" vertex="1" parent="1">
          <mxGeometry x="500" y="235" width="120" height="40" as="geometry" />
        </mxCell>
        <mxCell id="MLw9d0rKmO0q-Xc1ZFIX-47" value="返回异常，重新填写" style="text;whiteSpace=wrap;html=1;" vertex="1" parent="1">
          <mxGeometry x="563" y="185" width="70" height="30" as="geometry" />
        </mxCell>
        <mxCell id="MLw9d0rKmO0q-Xc1ZFIX-48" value="服务器端查看采集指令" style="rounded=1;whiteSpace=wrap;html=1;arcSize=40;fontColor=#000000;fillColor=#ffffc0;strokeColor=#ff0000;" vertex="1" parent="1">
          <mxGeometry x="283" y="445" width="130" height="40" as="geometry" />
        </mxCell>
        <mxCell id="MLw9d0rKmO0q-Xc1ZFIX-49" value="" style="edgeStyle=orthogonalEdgeStyle;html=1;verticalAlign=bottom;endArrow=open;endSize=8;strokeColor=#ff0000;" edge="1" parent="1" source="MLw9d0rKmO0q-Xc1ZFIX-48">
          <mxGeometry relative="1" as="geometry">
            <mxPoint x="348" y="545" as="targetPoint" />
          </mxGeometry>
        </mxCell>
        <mxCell id="MLw9d0rKmO0q-Xc1ZFIX-50" value="得到采集数据" style="rounded=1;whiteSpace=wrap;html=1;arcSize=40;fontColor=#000000;fillColor=#ffffc0;strokeColor=#ff0000;" vertex="1" parent="1">
          <mxGeometry x="290" y="545" width="120" height="40" as="geometry" />
        </mxCell>
        <mxCell id="MLw9d0rKmO0q-Xc1ZFIX-51" value="" style="edgeStyle=orthogonalEdgeStyle;html=1;verticalAlign=bottom;endArrow=open;endSize=8;strokeColor=#ff0000;" edge="1" parent="1">
          <mxGeometry relative="1" as="geometry">
            <mxPoint x="380" y="485" as="targetPoint" />
            <mxPoint x="380" y="545" as="sourcePoint" />
            <Array as="points">
              <mxPoint x="380" y="505" />
              <mxPoint x="380" y="505" />
            </Array>
          </mxGeometry>
        </mxCell>
        <mxCell id="MLw9d0rKmO0q-Xc1ZFIX-52" value="返回采集数据" style="text;whiteSpace=wrap;html=1;" vertex="1" parent="1">
          <mxGeometry x="400" y="495" width="90" height="30" as="geometry" />
        </mxCell>
        <mxCell id="MLw9d0rKmO0q-Xc1ZFIX-53" value="指定采集点" style="text;whiteSpace=wrap;html=1;" vertex="1" parent="1">
          <mxGeometry x="260" y="495" width="90" height="30" as="geometry" />
        </mxCell>
        <mxCell id="MLw9d0rKmO0q-Xc1ZFIX-54" value="" style="edgeStyle=orthogonalEdgeStyle;html=1;verticalAlign=bottom;endArrow=open;endSize=8;strokeColor=#ff0000;" edge="1" parent="1">
          <mxGeometry relative="1" as="geometry">
            <mxPoint x="380" y="385" as="targetPoint" />
            <mxPoint x="380" y="445" as="sourcePoint" />
            <Array as="points">
              <mxPoint x="380" y="405" />
              <mxPoint x="380" y="405" />
            </Array>
          </mxGeometry>
        </mxCell>
        <mxCell id="MLw9d0rKmO0q-Xc1ZFIX-55" value="返回采集数据" style="text;whiteSpace=wrap;html=1;" vertex="1" parent="1">
          <mxGeometry x="400" y="395" width="90" height="30" as="geometry" />
        </mxCell>
      </root>
    </mxGraphModel>
  </diagram>
</mxfile>
